<?xml version="1.0" encoding="utf-8"?>
<!-- Generator: Adobe Illustrator 23.0.0, SVG Export Plug-In . SVG Version: 6.00 Build 0)  -->
<svg version="1.1" id="Слой_1" xmlns="http://www.w3.org/2000/svg" xmlns:xlink="http://www.w3.org/1999/xlink" x="0px" y="0px"
	 viewBox="0 0 747 446" style="enable-background:new 0 0 747 446;" xml:space="preserve">
<style type="text/css">
	.st0{fill:none;stroke:#FFFFFF;stroke-width:3;stroke-miterlimit:10;}
</style>
<g>
	<path class="st0" d="M26.98,420.52c11.88-1.67,24.32-3.23,37.34-4.69c13.02-1.46,26.72-2.81,41.09-4.06l0.94-4.69
		c3.75-16.46,7.66-32.97,11.72-49.53s8.59-33.8,13.59-51.72c5-17.91,10.73-36.88,17.19-56.87c6.46-20,13.85-41.61,22.19-64.84
		c8.33-23.23,17.81-48.38,28.44-75.47c10.63-27.08,22.71-56.67,36.25-88.75c2.92-7.08,6.67-10.63,11.25-10.63
		c4.58,0,8.64,2.14,12.19,6.41c3.54,4.27,5.99,10,7.34,17.19c1.35,7.19,0.26,14.53-3.28,22.03c-13.96,29.79-26.41,56.2-37.34,79.22
		c-10.94,23.02-20.73,44.01-29.38,62.97c-8.65,18.96-16.46,36.62-23.44,52.97c-6.98,16.36-13.49,32.76-19.53,49.22
		c-6.04,16.46-11.93,33.65-17.66,51.56c-5.73,17.92-11.62,37.92-17.66,60c22.29-1.88,46.2-3.86,71.72-5.94
		c25.52-2.08,52.86-4.74,82.03-7.97c29.16-3.23,60.21-7.34,93.13-12.34c32.91-5,68.02-11.25,105.31-18.75
		c7.5-1.46,12.34-0.52,14.53,2.81c2.19,3.33,2.24,7.39,0.16,12.19c-2.09,4.79-5.94,9.48-11.56,14.06
		c-5.63,4.58-12.5,7.29-20.63,8.13c-34.17,3.75-65,6.77-92.5,9.06c-27.5,2.29-52.92,4.22-76.25,5.78
		c-23.34,1.56-45.26,2.86-65.78,3.91c-20.52,1.04-40.94,2.19-61.25,3.44s-41.2,2.6-62.66,4.06c-21.46,1.46-44.79,3.44-70,5.94
		c-5.42,0.63-9.43,0.36-12.03-0.78c-2.61-1.15-3.8-2.61-3.59-4.38c0.21-1.77,1.82-3.59,4.84-5.47
		C16.72,422.71,21.15,421.35,26.98,420.52z"/>
	<path class="st0" d="M329.17,215.21c5.21,2.08,8.8,5.78,10.78,11.09c1.98,5.31,2.76,11.56,2.34,18.75
		c-0.42,7.19-1.88,15-4.38,23.44s-5.63,16.72-9.38,24.84s-8.08,15.89-12.97,23.28c-4.9,7.4-9.9,13.65-15,18.75
		c-5.11,5.11-10.26,8.7-15.47,10.78c-5.21,2.09-10,2.09-14.38,0c-5.83-2.91-9.48-8.54-10.94-16.88c-1.46-8.33-1.2-17.81,0.78-28.44
		c1.98-10.63,5.31-21.61,10-32.97c4.69-11.35,10.21-21.41,16.56-30.16s13.17-15.36,20.47-19.84
		C314.89,213.38,322.08,212.5,329.17,215.21z M276.35,332.39c2.71,1.25,5.99,0.31,9.84-2.81s7.6-7.45,11.25-12.97
		c3.64-5.52,7.03-11.82,10.16-18.91c3.13-7.08,5.42-13.85,6.88-20.31c1.46-6.46,1.88-12.13,1.25-17.03
		c-0.63-4.89-2.81-8.07-6.56-9.53c-3.13-1.04-6.46,0.05-10,3.28c-3.54,3.23-6.98,7.66-10.31,13.28s-6.35,11.93-9.06,18.91
		c-2.71,6.98-4.79,13.7-6.25,20.16c-1.46,6.46-2.03,12.09-1.72,16.88C272.13,328.13,273.65,331.14,276.35,332.39z"/>
	<path class="st0" d="M390.41,241.14c-1.25,6.88-1.46,13.39-0.63,19.53c0.83,6.15,2.19,12.09,4.06,17.81
		c1.88,5.73,3.96,11.36,6.25,16.88c2.29,5.52,4.27,11.09,5.94,16.72c6.67-7.91,14.74-18.17,24.22-30.78
		c9.48-12.6,18.59-26.51,27.34-41.72c2.92-5,5.67-8.38,8.28-10.16c2.6-1.77,4.63-2.19,6.09-1.25c1.46,0.94,2.03,3.13,1.72,6.56
		s-2.03,7.76-5.16,12.97c-12.92,22.09-24.38,39.48-34.38,52.19c-10,12.71-18.23,22.29-24.69,28.75c0.42,6.04-0.37,12.19-2.34,18.44
		c-1.98,6.25-5.78,12.92-11.41,20c-6.88,8.54-13.44,14.84-19.69,18.91s-11.51,6.09-15.78,6.09c-4.27,0-7.24-1.88-8.91-5.63
		c-1.67-3.75-1.56-9.06,0.31-15.94c1.46-4.79,4.43-9.95,8.91-15.47c4.48-5.52,9.11-10.57,13.91-15.16
		c5.63-5.41,11.77-10.63,18.44-15.63c0.83-3.54,0-8.02-2.5-13.44c-2.5-5.41-5.42-11.3-8.75-17.66c-3.33-6.35-6.62-12.91-9.84-19.69
		c-3.23-6.77-5.16-13.49-5.78-20.16c-1.46-12.29-0.21-22.39,3.75-30.31c3.96-7.92,8.64-13.49,14.06-16.72
		c5.42-3.23,10.52-4.11,15.31-2.66c4.79,1.46,7.39,5.31,7.81,11.56c0.21,3.96-0.47,7.5-2.03,10.63s-3.49,5.83-5.78,8.13
		C396.66,236.67,393.74,239.06,390.41,241.14z"/>
	<path class="st0" d="M442.28,187.39l31.25-5.31c2.92-9.58,5.63-18.17,8.13-25.78c2.5-7.6,4.58-13.91,6.25-18.91
		c4.17-12.71,8.85-22.66,14.06-29.84c5.21-7.19,10.16-11.88,14.84-14.06s8.64-1.88,11.88,0.94c3.23,2.81,5.05,7.76,5.47,14.84
		c0.21,5.83-0.73,11.98-2.81,18.44c-2.08,6.46-4.69,12.71-7.81,18.75c-3.13,6.04-6.46,11.72-10,17.03
		c-3.54,5.31-6.67,9.74-9.38,13.28c13.54-2.29,28.23-4.79,44.06-7.5c15.83-2.71,31.77-5.42,47.81-8.13
		c16.04-2.71,31.72-5.36,47.03-7.97c15.31-2.6,29.06-5,41.25-7.19s22.39-4.01,30.63-5.47c8.23-1.46,13.38-2.39,15.47-2.81
		c4.38-0.83,7.24-0.05,8.59,2.34c1.35,2.4,1.46,5.31,0.31,8.75c-1.15,3.44-3.33,6.77-6.56,10c-3.23,3.23-7.24,5.26-12.03,6.09
		c-2.5,0.42-8.02,1.2-16.56,2.34c-8.54,1.15-19.01,2.5-31.41,4.06c-12.4,1.56-26.25,3.28-41.56,5.16s-30.94,3.75-46.88,5.63
		s-31.67,3.8-47.19,5.78c-15.52,1.98-29.64,3.7-42.34,5.16c-1.67,5.42-4.12,13.49-7.34,24.22c-3.23,10.73-6.72,22.71-10.47,35.94
		c-3.75,13.23-7.55,27.09-11.41,41.56c-3.86,14.48-7.29,28.28-10.31,41.41s-5.26,24.89-6.72,35.31
		c-1.46,10.42-1.77,18.02-0.94,22.81c7.5-5,15.21-13.23,23.13-24.69c7.92-11.46,15.88-24.48,23.91-39.06
		c8.02-14.58,16.04-29.89,24.06-45.94c8.02-16.04,15.88-31.04,23.59-45c2.71-5,5.36-8.38,7.97-10.16c2.6-1.77,4.63-2.19,6.09-1.25
		c1.46,0.94,2.03,3.13,1.72,6.56s-1.93,7.76-4.84,12.97c-3.75,7.09-8.02,15.26-12.81,24.53c-4.79,9.27-9.9,19.01-15.31,29.22
		c-5.42,10.21-11.04,20.52-16.88,30.94c-5.83,10.42-11.62,20.26-17.34,29.53c-5.73,9.27-11.36,17.55-16.88,24.84
		c-5.52,7.29-10.68,12.92-15.47,16.88c-5.83,4.79-11.04,6.46-15.63,5c-4.58-1.46-7.71-5.83-9.38-13.13
		c-1.46-6.04-2.03-13.59-1.72-22.66s1.25-19.12,2.81-30.16c1.56-11.04,3.65-22.76,6.25-35.16c2.61-12.39,5.47-25,8.59-37.81
		s6.41-25.47,9.84-37.97s6.82-24.38,10.16-35.63c-6.88,0.83-12.76,1.56-17.66,2.19c-4.89,0.63-7.86,1.04-8.91,1.25
		c-3.13,0.63-5.52,0.42-7.19-0.63c-1.67-1.04-2.5-2.34-2.5-3.91s0.73-3.07,2.19-4.53C436.87,189.06,439.16,188.02,442.28,187.39z"/>
</g>
<g>
</g>
<g>
</g>
<g>
</g>
<g>
</g>
<g>
</g>
<g>
</g>
<g>
</g>
<g>
</g>
<g>
</g>
<g>
</g>
<g>
</g>
<g>
</g>
<g>
</g>
<g>
</g>
<g>
</g>
</svg>
